<svg xmlns="http://www.w3.org/2000/svg" viewBox="0 0 164.03 164"><defs><style>.a,.e{fill:#ffe4db;}.b{fill:#d5a092;}.c{fill:#d6f7f8;}.d{fill:#86acd8;}.e,.l,.n,.p{stroke:#000;stroke-miterlimit:10;}.e,.l,.p{stroke-width:0.5px;}.e{opacity:0.5;}.f{fill:#d0a799;}.g{fill:#cfaba1;}.h{opacity:0.15;}.i{fill:#492a34;}.j{fill:#ad5e63;}.k{fill:#e99f97;}.m{fill:#fff;}.n{fill:#79d5e9;stroke-width:3px;}.o{fill:#a8fbff;}.p{fill:none;}.p,.q{opacity:0.1;}.r{opacity:0.3;}</style></defs><path class="a" d="M164,32.51v127.6a35.81,35.81,0,0,1-4.32,3.18c-.32.2-.67.4-1,.58l-.25.13H100.21L67.53,133.41l-1.19-1.11-54.49-51-.16-.16L6,75.81l1.12-6.58v-.07l6.41-37.55.14-.83L18.19,4.39,23.39.13,23.55,0H136.73l.1,0,.14.07h0l.42.21.3.16c1.15.57,3.23,1.62,5.73,2.89l1.65.84,1.74.89,3.41,1.75a85.81,85.81,0,0,1,6.16,11.65,37.79,37.79,0,0,1,3.05,10.25c0,.26,0,.39,0,.39l.42.28.11.08c.45.31,1.18.82,2.13,1.54l.56.43Z"/><path class="b" d="M118.84,59.85v0h-.06l-1-.34c-.69-.25-1.69-.65-2.93-1.2-.89-.41-1.9-.89-3-1.46h0c-.57-.3-1.18-.63-1.8-1h0a9.38,9.38,0,0,1-.91-.58c-3.93-2.84-5.09-8-5.26-8.74a.28.28,0,0,0,0-.08v0l.35,0h.15a27.61,27.61,0,0,1,9.31.7c3.6,1.12,4.84,10,5.11,12.24C118.81,59.61,118.83,59.79,118.84,59.85Z"/><path class="c" d="M130.69,164s0,0,0,0c-.25-.2-1.54-1.19-3.62-2.7l-1.66-1.19-.6-.42c-.76-.54-1.59-1.11-2.47-1.71l-1.72-1.16c-.73-.49-1.49-1-2.28-1.51l-.15-.09-1.72-1.1c-2.35-1.5-4.91-3.05-7.62-4.6-.68-.39-1.36-.78-2.06-1.16l-1.05-.58c-.49-.27-1-.54-1.48-.8l-.15-.08h0c-.9-.48-1.81-1-2.72-1.41s-1.85-.92-2.79-1.36h0c-1.22-.58-2.44-1.15-3.68-1.69l-2.45-1c-2.5-1-5-1.95-7.52-2.73l-1.25-.37q-2.49-.74-4.94-1.25a116.29,116.29,0,0,1-11.18-3.59L100.21,164h30.48ZM41.44,43c0,.07,0,.14.05.2s.1.34.13.46Q41.56,43.46,41.44,43Z"/><polygon class="b" points="158.45 164 164 153.53 164 164 158.45 164"/><path class="d" d="M164,14.4V32.51l-1.3-1-.56-.43c-.95-.72-1.68-1.23-2.13-1.54l-.11-.08-.42-.28s0-.13,0-.39a37.79,37.79,0,0,0-3.05-10.25,85.81,85.81,0,0,0-6.16-11.65c4.35,2.25,8.75,4.57,11.48,6.13C162.49,13.44,163.25,13.91,164,14.4Z"/><path class="e" d="M19.72,56c-.39-1.34-.81-2.92-1.1-4.09C18.92,53,19.35,54.59,19.72,56Z"/><path class="e" d="M41.62,43.7c0-.12-.08-.28-.13-.46s0-.13-.05-.2Q41.56,43.46,41.62,43.7Z"/><path class="a" d="M25.56,164H22.15a33.67,33.67,0,0,1-4.44-3.75c-.2-.2-.41-.41-.61-.63a34.86,34.86,0,0,1-2.51-2.94l-.63-.84h0l-.6-.87c-.61-.91-1.21-1.88-1.77-2.92-.19-.34-.37-.69-.55-1.06s-.29-.58-.42-.88-.39-.85-.57-1.29l-.3-.76c-.09-.21-.17-.43-.25-.65s-.18-.49-.26-.75-.15-.43-.22-.66l-.3-1c-3-12-1-20,3-21a9.76,9.76,0,0,1,2.37-.28l.64,0,.61.05a1,1,0,0,0,.1.17l.69,1.2q1.64,2.82,3.29,5.4c.46.72.92,1.42,1.37,2.11.3.44.59.88.89,1.31-.54-.16-6.11-1.74-9,3-3,5,0,14,3,18C17.4,157.25,21.92,161.07,25.56,164Z"/><path class="a" d="M51.71,164h-.07l-.19-.14.11.06Z"/><path class="f" d="M51.64,164H25.56c-3.64-2.93-8.16-6.75-9.85-9-3-4-6-13-3-18a7.28,7.28,0,0,1,.81-1.1,3.41,3.41,0,0,1,.37-.39c3-2.9,7.31-1.67,7.78-1.53L23,135.83l1.38,1.92c.4.55.8,1.08,1.2,1.61l.06.08L26.81,141c.23.3.47.6.71.89s.45.57.68.85a2.17,2.17,0,0,0,.24.29c.29.37.59.73.89,1.08.41.5.83,1,1.24,1.46l1,1.18c.88,1,1.75,1.92,2.6,2.82s1.55,1.62,2.31,2.36,1.48,1.45,2.2,2.13h0c.72.67,1.41,1.3,2.09,1.89,0,0,0,0,.05.05L42,157l.35.29.39.33.09.08q.88.74,1.71,1.38l.84.65.43.33c.35.27.7.52,1,.76l.8.57c.37.27.72.5,1,.72s.53.35.77.51l.88.56.78.46.22.13h0l.08.05Z"/><path class="d" d="M17.71,160.25c-.2-.2-.41-.41-.61-.63a34.86,34.86,0,0,1-2.51-2.94l-.63-.84h0l-.6-.87c-.61-.91-1.21-1.88-1.77-2.92-.19-.34-.37-.69-.55-1.06s-.29-.58-.42-.88-.39-.85-.57-1.29c-.11-.25-.21-.5-.3-.76s-.17-.43-.25-.65-.18-.49-.26-.75-.15-.43-.22-.66l-.3-1c-3-12-1-20,3-21a9.76,9.76,0,0,1,2.37-.28l.64,0,.61.05A14,14,0,0,1,19.71,125L9.8,113.11,9.71,113,0,103.62V164H22.15A33.67,33.67,0,0,1,17.71,160.25Z"/><path class="c" d="M164,0l0,14.36c-.75-.49-1.65-1-2.43-1.4-2.73-1.56-7.13-3.88-11.48-6.13l-3.41-1.75-1.74-.89-1.65-.84c-2.5-1.27-4.58-2.32-5.73-2.89l-.3-.16c-.17-.08-.44-.28-.55-.34Z"/><path class="g" d="M145.69,68.4c-3.1-3.07-6.35-4.9-10.21-5a15.1,15.1,0,0,0-4,.44,5.83,5.83,0,0,0,2.73-1.54c1.17-1.55-.64-4.13,2.07-4.77C138.6,57,144.18,65.92,145.69,68.4Z"/><g class="h"><path d="M30.92,156.13a.25.25,0,0,1-.21.12.2.2,0,0,1-.13,0c-.33-.2-8.06-5.05-11-8s-5.61-11.06-6-12.28a3.41,3.41,0,0,1,.37-.39.23.23,0,0,1,.07.1c0,.09,3,9.29,5.93,12.21s10.87,7.92,11,8A.24.24,0,0,1,30.92,156.13Z"/></g><g class="h"><path d="M33.05,160.42a16.56,16.56,0,0,1-2.38-.17c-7-1-12.11-8-12.16-8.1a.25.25,0,1,1,.4-.29c.05.07,5,6.92,11.84,7.9A15.09,15.09,0,0,0,42,157.07a.25.25,0,1,1,.32.38A15.28,15.28,0,0,1,33.05,160.42Z"/></g><path class="i" d="M164,94.35v45.43a18.72,18.72,0,0,0-5.1,3.19c-4.64,4.84-2.13,6.77-4.45,9.48s-7.16,6.39-17.42,8.32a38.26,38.26,0,0,1-10,.49,43.9,43.9,0,0,1-9.94-1.84L104.54,149l-6-4.94h0l-2.74-2.27s-11.62-12.2-15.1-32.71,3.68-40.26,9.68-41.42,11,6,13.74,5.8,4.84-2.9,8.13-3.09,4.64,1.93,7.74,1.35c2.29-.43,4.37-4.87,9.2-7.08a14.05,14.05,0,0,1,1.47-.57L131,64l.37-.11.1,0a15.1,15.1,0,0,1,4-.44c3.86.08,7.11,1.91,10.21,5,4.66,4.63,9,12.08,14.57,20.57C161.51,90.88,162.77,92.66,164,94.35Z"/><path class="j" d="M164,124.31v15.47a18.72,18.72,0,0,0-5.1,3.19c-4.64,4.84-2.13,6.77-4.45,9.48s-7.16,6.39-17.42,8.32a38.26,38.26,0,0,1-10,.49,43.9,43.9,0,0,1-9.94-1.84L104.54,149c-.15-.67-.3-1.39-.46-2.17h0c-.08-.4-.16-.82-.25-1.25s-.15-.79-.24-1.2-.14-.81-.22-1.22c-.38-2-.75-4.28-1.07-6.62-.12-.86-.23-1.73-.33-2.62,0-.29-.07-.59-.1-.88s-.07-.64-.11-1c-.08-.87-.16-1.75-.23-2.63-.11-1.51-.19-3-.23-4.51a47.57,47.57,0,0,1,.94-11.63c.12-.49.24-1,.38-1.44s.29-.91.45-1.35c5.23-14,12-13.07,16.88-15.71s6.64-7.74,17.29-7.87c.52,0,1,0,1.53,0,.23,0,.46,0,.69,0l.69.07c.23,0,.47,0,.69.09a4.5,4.5,0,0,1,.51.08l.73.13a19,19,0,0,1,2.22.59,4,4,0,0,1,.45.15,17.81,17.81,0,0,1,3.75,1.8c.2.12.39.24.57.37l.53.38a15.07,15.07,0,0,1,1.75,1.51c.13.12.25.25.36.37a12.36,12.36,0,0,1,1,1.19c.11.14.21.28.31.43s.24.35.35.52a12,12,0,0,1,.88,1.65,8.63,8.63,0,0,1,.37,1,8.18,8.18,0,0,1,.25.8c0,.16.08.31.11.47a.31.31,0,0,1,0,.13,4.37,4.37,0,0,1,.09.5,4,4,0,0,1,.07.5,11.15,11.15,0,0,1,.07,1.29c0,.23,0,.45,0,.67s0,.43-.05.64c-.61,6.21-5,7.85-5,7.85l.18.32h0s0,0,.05.11h0a46.81,46.81,0,0,0,5.49,7.63c.26.29.53.59.82.87l.48.47c.32.32.66.63,1,.91s.65.53,1,.77h0c.34.24.68.46,1,.67.17.1.34.2.52.29A29.61,29.61,0,0,1,164,124.31Z"/><path class="k" d="M155.23,101c0,4.23-1.21,6.35-2.69,7.88a12.8,12.8,0,0,1-2.16,1.73h0a28.18,28.18,0,0,1-7.15,4.46c-10.65,4.84-24.2-3.29-33.1,2.32s-5.9,29.52-5.9,29.52l-.42-1.37c-1.93-9.72-4.22-25.74-.75-35,5.23-14,12-13.07,16.88-15.71s6.64-7.74,17.29-7.87c9.49-.12,16.42,5.36,17.76,11.72A10.22,10.22,0,0,1,155.23,101Z"/><path class="l" d="M71.87,48a17.86,17.86,0,0,0-5-1.41c-.68-.1-1.41-.17-2.2-.21,0,0,2.83,1.12,2.82,1.13-8.15-2.74-23.32-4.09-29.16,3.71A32.65,32.65,0,0,0,32,74.5l-.06.15s-.49,4.74.87,7.35,5,4.55,5,4.55A9.11,9.11,0,0,1,29,82.39c-3.38-5.13-2.22-32.91,12.49-40.74C55.87,34,71.13,47.35,71.87,48Z"/><path class="m" d="M65.81,73.68A34,34,0,0,1,51.1,84.32a23.45,23.45,0,0,1-11.62,2.13c-7.54-.43-6.63-5.08-7.48-12a32.65,32.65,0,0,1,6.32-23.27c5.84-7.8,18.18-7.58,26.33-4.84h0a19.76,19.76,0,0,1,5.79,2.9C76.65,54.13,72.39,65.55,65.81,73.68Z"/><path class="n" d="M45.68,54.62c-5.11,4.46-4.84,11.8-2.23,14.61,1.88,2,7,3.33,10.92.75,1.55-1,1-3.53,2-5.93s2.71-2.63,2.52-5.66a7.59,7.59,0,0,0-3.78-6.29C52.55,50.94,49.55,51.23,45.68,54.62Z"/><circle class="o" cx="49.74" cy="60.71" r="1.74"/><path class="m" d="M145.68,19.82h0a17.78,17.78,0,0,1-5.94,12.62c-4.45,3.87-7.93,2.71-11.8,3.87s-7.55,3.1-11,2.71c-2.82-.31-6.79-3.68-8.19-8.86a14.84,14.84,0,0,1-.52-3.91c0-7.36,1.36-18.58,9.49-21.87,11.16-4.52,24,4.45,26.9,10.45A11.37,11.37,0,0,1,145.68,19.82Z"/><path class="l" d="M145.74,19.87l-.06,0h0a11.37,11.37,0,0,0-1.1-5c-2.9-6-15.74-15-26.9-10.45-8.13,3.29-9.49,14.51-9.49,21.87a14.84,14.84,0,0,0,.52,3.91l-.13.15s-6.1-18.09,4.94-26.61S141.77,5,145.16,9.32,145.74,19.87,145.74,19.87Z"/><path class="n" d="M127.74,13.29c4.16,1.39,4.55,5.23,4.26,8s-2.61,5.22-9,5.61-8.9-6.87-7.84-10.36,3.81-2.64,6.13-3S124.55,12.23,127.74,13.29Z"/><circle class="o" cx="123.87" cy="20.07" r="1.74"/><path class="b" d="M41.7,44c-7.46-2.73-11-12.75-11-12.75-2.87,4.67-3.47,13.54-3.43,20.49A75.23,75.23,0,0,1,26.71,43c0-12,2-31,2-31a82.11,82.11,0,0,0,5,17C37.56,38.62,41.41,43.62,41.7,44Z"/><path class="b" d="M84.5,39a107.43,107.43,0,0,1-23.08-8.12c-11-5.55-22.84-20.13-22.84-20.13-3.12,6.15,0,21.17,1.91,28.74-.76-2.88-1.77-6.91-2.78-11.45-2-9-2-27-2-27s3,6,20,18a67.09,67.09,0,0,0,18,9A45.09,45.09,0,0,0,84.5,39Z"/><path class="c" d="M27.61,28.91s18,2.06,22.87-1.17a58.46,58.46,0,0,0,8.88-7.35l3.22,1.94s-1.42,3.48-11.48,6.06S27.61,28.91,27.61,28.91Z"/><path class="p" d="M63.1,79.87a45.29,45.29,0,0,0,9.16-9c3.87-5.29,3.87-8,3.87-8"/><path class="p" d="M64.26,84.65s13-11.23,13.42-18.71"/><path class="p" d="M120.58,40.58a25.69,25.69,0,0,0,13.94-1.35"/><path class="p" d="M121.16,44.07s11.42,1.16,17.42-1.94"/><g class="q"><path d="M118.84,59.85v0h0a0,0,0,0,1,0,0h0l-1-.34c-.69-.25-1.69-.65-2.93-1.2-.89-.4-1.91-.88-3-1.46h0c-.58-.3-1.18-.62-1.8-1h0a9.38,9.38,0,0,1-.91-.58c-4-2.86-5.12-8-5.26-8.74a.28.28,0,0,0,0-.08l.35-.06h0l.1,0h0c0,.24,1.15,6.33,5.93,9a51.87,51.87,0,0,0,8.49,3.9C118.81,59.61,118.83,59.79,118.84,59.85Z"/></g><path class="r" d="M43.36,77.29c6-3.24,12.7-3,16.06-.13s-5.71,11.62-11,14.13c-3.2,1.65-5.45.21-7,2.71-1.36,2.23-.9,6.52-5.16,10.91s-7.81,3.42-9.74.71.58-4.84.38-6.78-5.61-3.29-4.64-9.29,7.48-4.32,10.06-5.22,4.16,1.35,6.78-.39S40.26,79,43.36,77.29Z"/><path class="r" d="M164,24.83V34a3.79,3.79,0,0,0-1.45.25c-2.42,1-1.84,1.94-5.71,2.52S148.32,33.9,146,34.48s-4.26,2.71-6.39,2.71-6.77-1.35-6.19-6.77a3.52,3.52,0,0,1,4-2.42c3.09.48,2.8,2.71,5.13,2.52s3.77-2.91,8.71-3.2,5.48,2.66,8.21,1.45a1,1,0,0,0,.21-.09C162.48,27.27,161.72,26.22,164,24.83Z"/><path class="c" d="M0,90.61v19A50.81,50.81,0,0,0,9.71,113C5.69,104.72,2.51,97.23,0,90.61ZM77.71,17c8,5,9.15,3.26,9.15,3.26s-5.44-3.66-7.75-6.72a42.4,42.4,0,0,1-4.33-8.47A177.16,177.16,0,0,1,87.71,20c7,9,13,25,13,25s6-7,6-19c0-16.69-1.72-24.78-2-25.87l0-.13H0V90.34C2.53,97,5.74,104.62,9.8,113.11l.91,1.89c1.51,3.1,3.06,6,4.62,8.79a1,1,0,0,0,.1.17l.69,1.2q1.64,2.82,3.29,5.4c.46.72.92,1.42,1.37,2.11.3.44.59.88.89,1.31L23,135.83l1.38,1.92c.4.55.8,1.08,1.2,1.61l.06.08L26.81,141c.23.3.47.6.71.89s.45.57.68.85a2.17,2.17,0,0,0,.24.29c.29.37.59.73.89,1.08.41.5.83,1,1.24,1.46l1,1.18c.88,1,1.75,1.92,2.6,2.82s1.55,1.62,2.31,2.36,1.48,1.45,2.2,2.13h0c.72.68,1.41,1.31,2.09,1.89,0,0,0,0,.05.05.66.58,1.3,1.13,1.91,1.63l.09.08q.9.75,1.71,1.38l.84.65.43.33c.35.27.7.52,1,.76l.8.57c.37.27.72.5,1,.72s.53.35.77.51l.88.56.78.46.22.13h0l.08.05.11.06.15.08H82.42a80.87,80.87,0,0,1-8.36-5.88A62,62,0,0,0,83.71,164h16.5L67.53,133.41q-4.62-1.75-8.82-3.79l-1.49-.74c-.43-.21-.85-.43-1.28-.66l-1.19-.62q-.93-.5-1.83-1c-.41-.23-.82-.46-1.22-.7l-.4-.24c-.5-.29-1-.59-1.48-.89l-.93-.58-1.12-.72c-.62-.39-1.22-.8-1.82-1.21s-1.19-.82-1.77-1.24h0a94.73,94.73,0,0,1-13.7-11.93c1.65,1.68,3.39,3.33,5.24,4.93,3.06,2.65,6,5,8.86,7,1.2.85,2.37,1.65,3.53,2.4l.58.38c.19.12.38.25.57.36l.91.57c1.12.69,2.21,1.33,3.28,1.92l.94.52,1.11.59c1.1.57,2.17,1.1,3.22,1.58a64.92,64.92,0,0,0,7.63,3c12.2,3.85,19.37,1.7,19.37,1.7s-17-3-42-33A126.74,126.74,0,0,1,32.77,85.72c-2-3.24-3.7-6.41-5.21-9.48h0A118.36,118.36,0,0,1,20,57c1.89,6,5.3,9.1,7.77,10.63A11.3,11.3,0,0,0,30.71,69s-.9-3.14-1.85-7.7h0c-.57-2.79-1.16-6.11-1.58-9.57A75.23,75.23,0,0,1,26.71,43c0-1.13,0-2.31.05-3.54,0-.82,0-1.65.08-2.5,0-.53,0-1.06.07-1.6s.06-1.35.1-2c0-.24,0-.49,0-.74,0-.6.07-1.21.1-1.81,0-.1,0-.19,0-.28,0-.51.07-1,.1-1.52h0s0-.05,0-.07c0-.56.07-1.11.11-1.66.31-4.38.67-8.42.93-11.23,0-.16,0-.32,0-.47s.05-.5.07-.73.05-.46.07-.67,0-.27,0-.39l0-.35,0-.34c0-.15,0-.28,0-.4a1.11,1.11,0,0,0,0-.17c0-.1,0-.19,0-.26s0-.22,0-.22a82.11,82.11,0,0,0,5,17c0,.14.11.27.16.4l.06.13.48,1.16.48,1.11c.16.36.31.71.47,1.06l1,2.1.4.79c1.16,2.32,2.23,4.15,3.07,5.49l.24.38c.14.23.28.44.41.64.69,1,1.14,1.61,1.23,1.72v0s0,0,0-.06l-.05-.18c0-.12-.08-.28-.13-.46s0-.13-.05-.2l-.13-.46c-.05-.17-.1-.36-.15-.55s0-.1,0-.15-.07-.27-.11-.41-.06-.2-.08-.3-.1-.38-.15-.58c-.1-.36-.19-.74-.29-1.14,0-.16-.08-.32-.13-.48v0l0-.05c-.37-1.46-.81-3.19-1.28-5.1-.21-.86-.42-1.77-.64-2.7l-.33-1.42,0-.14c-.12-.51-.24-1-.35-1.54-2-9-2-27-2-27s3,6,20,18c.6.42,1.2.83,1.8,1.22l1.23.79c1.13.72,2.26,1.38,3.38,2a68.38,68.38,0,0,0,7.51,3.52c.46.18.91.36,1.36.52s.93.34,1.39.5.91.32,1.36.46a57.12,57.12,0,0,0,16,3s-2-1-7-4C75.23,21.39,66.87,7,65.83,5.19A38.5,38.5,0,0,0,77.71,17ZM18.62,51.86c.3,1.15.73,2.73,1.1,4.09C19.33,54.61,18.91,53,18.62,51.86Z"/></svg>